<svg width="1440" height="916" viewBox="0 0 1440 916" fill="none" xmlns="http://www.w3.org/2000/svg">
<path d="M1425.14 165.09C1416.25 145.635 1403.76 129.035 1388.69 116.634C1373.62 104.232 1356.39 96.3775 1338.39 93.7059C1320.4 91.0342 1302.15 93.6206 1285.12 101.256C1268.09 108.891 1252.76 121.36 1240.37 137.653C1227.98 153.947 1218.87 173.607 1213.79 195.041C1208.72 216.476 1207.81 239.082 1211.14 261.03C1214.47 282.979 1221.95 303.652 1232.97 321.376C1244 339.099 1258.25 353.376 1274.59 363.049L1296.1 307.9C1286.8 302.389 1278.67 294.256 1272.39 284.159C1266.11 274.061 1261.85 262.284 1259.95 249.78C1258.06 237.276 1258.57 224.397 1261.47 212.186C1264.36 199.975 1269.55 188.775 1276.61 179.492C1283.67 170.21 1292.4 163.106 1302.1 158.756C1311.8 154.407 1322.2 152.933 1332.45 154.455C1342.7 155.977 1352.52 160.452 1361.1 167.517C1369.69 174.583 1376.8 184.04 1381.87 195.123L1425.14 165.09Z" fill="#6070FF"/>
<path d="M253.121 896.096C255.514 892.584 257.202 888.427 258.049 883.962C258.896 879.497 258.877 874.849 257.994 870.394C257.112 865.939 255.39 861.803 252.969 858.321C250.548 854.839 247.495 852.108 244.058 850.349C240.621 848.591 236.896 847.854 233.185 848.2C229.474 848.545 225.881 849.962 222.697 852.336C219.513 854.71 216.828 857.975 214.858 861.866C212.889 865.757 211.691 870.164 211.361 874.731L221.52 875.845C221.708 873.243 222.39 870.732 223.512 868.515C224.634 866.299 226.164 864.439 227.978 863.086C229.792 861.733 231.839 860.926 233.953 860.729C236.067 860.533 238.189 860.952 240.147 861.954C242.105 862.956 243.845 864.512 245.224 866.496C246.603 868.48 247.584 870.836 248.087 873.374C248.589 875.911 248.6 878.559 248.118 881.103C247.635 883.647 246.674 886.015 245.31 888.016L253.121 896.096Z" fill="#EBEBFF"/>
<rect width="223.418" height="57.0712" transform="matrix(0.814865 -0.579651 0.424319 0.905513 1145.28 129.504)" fill="#EBEBFF"/>
<rect width="172.958" height="35.6657" transform="matrix(0.882972 0.469425 -0.330532 0.943795 718.083 801.148)" fill="#EBEBFF"/>
<rect width="58.3843" height="12.6249" transform="matrix(0.96628 -0.257493 -0.172898 -0.98494 678.731 181.016)" fill="#6070FF"/>
<rect width="126.164" height="22.3859" transform="matrix(0.614991 -0.788534 0.645265 0.763958 0 126.867)" fill="#EBEBFF"/>
<ellipse cx="853.138" cy="841.142" rx="24.2164" ry="29.8367" fill="#6070FF"/>
<ellipse cx="705.778" cy="189.812" rx="11.8506" ry="14.601" fill="#EBEBFF"/>
<path d="M1250.92 714.177C1250.92 740.299 1233.75 761.289 1212.78 761.289C1191.8 761.289 1174.63 740.299 1174.63 714.177C1174.63 688.055 1191.8 667.065 1212.78 667.065C1233.75 667.065 1250.92 688.055 1250.92 714.177Z" fill="white" stroke="#EBEBFF"/>
<path d="M998.452 67.9262C998.452 54.4262 989.586 43.668 978.857 43.668C968.128 43.668 959.263 54.4262 959.263 67.9262C959.263 81.4261 968.128 92.1843 978.857 92.1843C989.586 92.1843 998.452 81.4261 998.452 67.9262Z" fill="white" stroke="#EBEBFF"/>
<path d="M369.855 67.9262C369.855 73.0116 366.526 76.9485 362.627 76.9485C358.727 76.9485 355.398 73.0116 355.398 67.9262C355.398 62.8407 358.727 58.9038 362.627 58.9038C366.526 58.9038 369.855 62.8407 369.855 67.9262Z" fill="white" stroke="#EBEBFF"/>
<path d="M62.77 513.573C62.77 505.682 57.5957 499.472 51.4194 499.472C45.2431 499.472 40.0688 505.682 40.0688 513.573C40.0688 521.463 45.2431 527.674 51.4194 527.674C57.5957 527.674 62.77 521.463 62.77 513.573Z" fill="white" stroke="#EBEBFF"/>
<path d="M47.7963 92.7783C43.478 105.24 43.3544 119.305 47.4528 131.879C51.5511 144.453 59.5357 154.506 69.6501 159.827C79.7644 165.147 91.1799 165.299 101.385 160.25C111.591 155.2 119.75 145.363 124.068 132.901L47.7963 92.7783Z" fill="#6070FF"/>
<path d="M227.278 825.271C226.933 831.469 228.601 837.581 231.914 842.263C235.227 846.946 239.914 849.815 244.944 850.24C249.974 850.664 254.935 848.609 258.736 844.527C262.536 840.445 264.865 834.67 265.209 828.473L227.278 825.271Z" fill="#6070FF"/>
</svg>
